<?xml version="1.0" encoding="UTF-8" standalone="no"?>
<!DOCTYPE svg PUBLIC "-//W3C//DTD SVG 1.1//EN" "http://www.w3.org/Graphics/SVG/1.1/DTD/svg11.dtd">
<svg width="100%" height="100%" viewBox="0 0 14 14" version="1.1" xmlns="http://www.w3.org/2000/svg" xmlns:xlink="http://www.w3.org/1999/xlink" xml:space="preserve" xmlns:serif="http://www.serif.com/" style="fill-rule:evenodd;clip-rule:evenodd;stroke-linejoin:round;stroke-miterlimit:2;">
    <rect x="4" y="1" width="1" height="1" style="fill:rgb(91,110,225);"/>
    <rect x="5" y="1" width="1" height="1" style="fill:rgb(63,63,116);"/>
    <rect x="6" y="1" width="1" height="1" style="fill:rgb(99,155,255);"/>
    <rect x="7" y="1" width="1" height="1" style="fill:rgb(99,155,255);"/>
    <rect x="8" y="1" width="1" height="1" style="fill:rgb(63,63,116);"/>
    <rect x="9" y="1" width="1" height="1" style="fill:rgb(99,155,255);"/>
    <rect x="4" y="2" width="1" height="1" style="fill:rgb(91,110,225);"/>
    <rect x="5" y="2" width="1" height="1" style="fill:rgb(99,155,255);"/>
    <rect x="6" y="2" width="1" height="1" style="fill:rgb(99,155,255);"/>
    <rect x="7" y="2" width="1" height="1" style="fill:rgb(99,155,255);"/>
    <rect x="8" y="2" width="1" height="1" style="fill:rgb(99,155,255);"/>
    <rect x="9" y="2" width="1" height="1" style="fill:rgb(99,155,255);"/>
    <rect x="4" y="3" width="1" height="1" style="fill:rgb(91,110,225);"/>
    <rect x="5" y="3" width="1" height="1" style="fill:rgb(63,63,116);"/>
    <rect x="6" y="3" width="1" height="1" style="fill:rgb(99,155,255);"/>
    <rect x="7" y="3" width="1" height="1" style="fill:rgb(99,155,255);"/>
    <rect x="8" y="3" width="1" height="1" style="fill:rgb(63,63,116);"/>
    <rect x="9" y="3" width="1" height="1" style="fill:rgb(99,155,255);"/>
    <rect x="4" y="4" width="1" height="1" style="fill:rgb(91,110,225);"/>
    <rect x="5" y="4" width="1" height="1" style="fill:rgb(99,155,255);"/>
    <rect x="6" y="4" width="1" height="1" style="fill:rgb(99,155,255);"/>
    <rect x="7" y="4" width="1" height="1" style="fill:rgb(99,155,255);"/>
    <rect x="8" y="4" width="1" height="1" style="fill:rgb(99,155,255);"/>
    <rect x="9" y="4" width="1" height="1" style="fill:rgb(99,155,255);"/>
    <rect x="4" y="5" width="1" height="1" style="fill:rgb(91,110,225);"/>
    <rect x="5" y="5" width="1" height="1" style="fill:rgb(63,63,116);"/>
    <rect x="6" y="5" width="1" height="1" style="fill:rgb(99,155,255);"/>
    <rect x="7" y="5" width="1" height="1" style="fill:rgb(99,155,255);"/>
    <rect x="8" y="5" width="1" height="1" style="fill:rgb(63,63,116);"/>
    <rect x="9" y="5" width="1" height="1" style="fill:rgb(99,155,255);"/>
    <rect x="4" y="6" width="1" height="1" style="fill:rgb(91,110,225);"/>
    <rect x="5" y="6" width="1" height="1" style="fill:rgb(91,110,225);"/>
    <rect x="6" y="6" width="1" height="1" style="fill:rgb(91,110,225);"/>
    <rect x="7" y="6" width="1" height="1" style="fill:rgb(91,110,225);"/>
    <rect x="8" y="6" width="1" height="1" style="fill:rgb(91,110,225);"/>
    <g transform="matrix(1,0,0,1,0,1)">
        <rect x="10" y="7" width="1" height="1" style="fill:rgb(99,155,255);"/>
    </g>
    <g transform="matrix(1,0,0,1,0,1)">
        <rect x="10" y="8" width="1" height="1" style="fill:rgb(99,155,255);"/>
    </g>
    <g transform="matrix(1,0,0,1,0,1)">
        <rect x="11" y="8" width="1" height="1" style="fill:rgb(99,155,255);"/>
    </g>
    <g transform="matrix(1,0,0,1,0,1)">
        <rect x="1" y="9" width="1" height="1" style="fill:rgb(99,155,255);"/>
    </g>
    <g transform="matrix(1,0,0,1,0,1)">
        <rect x="2" y="9" width="1" height="1" style="fill:rgb(99,155,255);"/>
    </g>
    <g transform="matrix(1,0,0,1,0,1)">
        <rect x="3" y="9" width="1" height="1" style="fill:rgb(99,155,255);"/>
    </g>
    <g transform="matrix(1,0,0,1,0,1)">
        <rect x="4" y="9" width="1" height="1" style="fill:rgb(99,155,255);"/>
    </g>
    <g transform="matrix(1,0,0,1,0,1)">
        <rect x="5" y="9" width="1" height="1" style="fill:rgb(99,155,255);"/>
    </g>
    <g transform="matrix(1,0,0,1,0,1)">
        <rect x="6" y="9" width="1" height="1" style="fill:rgb(99,155,255);"/>
    </g>
    <g transform="matrix(1,0,0,1,0,1)">
        <rect x="7" y="9" width="1" height="1" style="fill:rgb(99,155,255);"/>
    </g>
    <g transform="matrix(1,0,0,1,0,1)">
        <rect x="8" y="9" width="1" height="1" style="fill:rgb(99,155,255);"/>
    </g>
    <g transform="matrix(1,0,0,1,0,1)">
        <rect x="9" y="9" width="1" height="1" style="fill:rgb(99,155,255);"/>
    </g>
    <g transform="matrix(1,0,0,1,0,1)">
        <rect x="10" y="9" width="1" height="1" style="fill:rgb(99,155,255);"/>
    </g>
    <g transform="matrix(1,0,0,1,0,1)">
        <rect x="11" y="9" width="1" height="1" style="fill:rgb(99,155,255);"/>
    </g>
    <g transform="matrix(1,0,0,1,0,1)">
        <rect x="12" y="9" width="1" height="1" style="fill:rgb(99,155,255);"/>
    </g>
    <g transform="matrix(1,0,0,1,0,1)">
        <rect x="10" y="10" width="1" height="1" style="fill:rgb(99,155,255);"/>
    </g>
    <g transform="matrix(1,0,0,1,0,1)">
        <rect x="11" y="10" width="1" height="1" style="fill:rgb(99,155,255);"/>
    </g>
    <g transform="matrix(1,0,0,1,0,1)">
        <rect x="10" y="11" width="1" height="1" style="fill:rgb(99,155,255);"/>
    </g>
    <g transform="matrix(1,0,0,1,1,0)">
        <rect x="8" y="6" width="1" height="1" style="fill:rgb(91,110,225);"/>
    </g>
</svg>
